<svg width="22" height="16" viewBox="0 0 22 16" fill="none" xmlns="http://www.w3.org/2000/svg">
<path d="M3.18269 0.929932C1.27994 2.73993 0.102539 5.23993 0.102539 7.99993C0.102539 10.7599 1.27994 13.2599 3.18269 15.0699L4.66495 13.6599C3.14064 12.2199 2.20503 10.2199 2.20503 7.99993C2.20503 5.78993 3.14064 3.77993 4.66495 2.33993L3.18269 0.929932ZM18.0473 0.929932L16.5651 2.33993C18.0894 3.77993 19.025 5.78993 19.025 7.99993C19.025 10.2199 18.0894 12.2199 16.5651 13.6599L18.0473 15.0699C19.9501 13.2599 21.1275 10.7599 21.1275 7.99993C21.1275 5.23993 19.9501 2.73993 18.0473 0.929932ZM6.15772 3.75993C5.01186 4.84993 4.30753 6.34993 4.30753 7.99993C4.30753 9.64993 5.01186 11.1499 6.15772 12.2399L7.63998 10.8299C6.88308 10.1099 6.41002 9.10993 6.41002 7.99993C6.41002 6.88993 6.88308 5.88993 7.63998 5.16993L6.15772 3.75993ZM15.0723 3.75993L13.59 5.16993C14.3469 5.88993 14.82 6.88993 14.82 7.99993C14.82 9.10993 14.3469 10.1099 13.59 10.8299L15.0723 12.2399C16.2181 11.1499 16.9225 9.64993 16.9225 7.99993C16.9225 6.34993 16.2181 4.84993 15.0723 3.75993ZM10.615 5.99993C10.0574 5.99993 9.52261 6.21065 9.12832 6.58572C8.73403 6.96079 8.51251 7.4695 8.51251 7.99993C8.51251 8.53036 8.73403 9.03907 9.12832 9.41414C9.52261 9.78922 10.0574 9.99993 10.615 9.99993C11.1726 9.99993 11.7074 9.78922 12.1017 9.41414C12.496 9.03907 12.7175 8.53036 12.7175 7.99993C12.7175 7.4695 12.496 6.96079 12.1017 6.58572C11.7074 6.21065 11.1726 5.99993 10.615 5.99993Z" fill="#0BA649"/>
</svg>
