<svg width="150" height="150" viewBox="0 0 150 150" fill="none" xmlns="http://www.w3.org/2000/svg">
<path d="M115 65L115 121.774" stroke="white" stroke-width="7.5" stroke-linecap="round"/>
<path d="M115 121.773L35 121.773" stroke="white" stroke-width="7.5" stroke-linecap="round"/>
<path d="M104.517 72.7417C104.517 69.9803 102.278 67.7417 99.5166 67.7417C96.7552 67.7417 94.5166 69.9803 94.5166 72.7417L104.517 72.7417ZM94.5166 72.7417L94.5166 114.032L104.517 114.032L104.517 72.7417L94.5166 72.7417Z" fill="white"/>
<path d="M86.4512 88.2266C86.4512 85.4651 84.2126 83.2266 81.4512 83.2266C78.6897 83.2266 76.4512 85.4651 76.4512 88.2266L86.4512 88.2266ZM76.4512 88.2266L76.4512 114.033L86.4512 114.033L86.4512 88.2266L76.4512 88.2266Z" fill="white"/>
<path d="M68.3877 77.9028C68.3877 75.1414 66.1491 72.9028 63.3877 72.9028C60.6263 72.9028 58.3877 75.1414 58.3877 77.9028L68.3877 77.9028ZM58.3877 77.9028L58.3877 114.032L68.3877 114.032L68.3877 77.9028L58.3877 77.9028Z" fill="white"/>
<path d="M50.3223 98.5488C50.3223 95.7874 48.0837 93.5488 45.3223 93.5488C42.5608 93.5488 40.3223 95.7874 40.3223 98.5488L50.3223 98.5488ZM40.3223 98.5488L40.3223 114.033L50.3223 114.033L50.3223 98.5488L40.3223 98.5488Z" fill="white"/>
<path d="M77.3204 14.0098C77.5304 14.5698 77.6004 16.7398 77.4604 18.7698C77.3204 21.5698 76.9704 22.5498 76.2004 22.5498C74.8004 22.5498 74.6604 13.7298 75.9904 13.3098C76.4804 13.0998 77.0404 13.4498 77.3204 14.0098Z" fill="white"/>
<path d="M92.8609 20.2396C93.4909 20.8696 93.0709 21.7096 90.7609 24.0896C89.1509 25.7696 87.4009 27.0996 86.9109 27.0996C85.2309 27.0996 86.0009 25.2796 89.0109 22.3396C91.3909 20.0296 92.2309 19.6096 92.8609 20.2396Z" fill="white"/>
<path d="M63.4606 22.4096C66.4006 25.4196 67.1706 27.0996 65.4906 27.0996C64.1606 27.0996 58.4906 21.0096 58.9806 20.1696C59.7506 18.9096 60.3106 19.2596 63.4606 22.4096Z" fill="white"/>
<path d="M80.7509 26.6798C87.6109 29.6198 89.4309 38.7898 84.3909 44.3898L82.0809 46.8398L79.2809 44.9498C76.9709 43.4798 76.2709 42.4998 75.5709 39.6298C74.9409 37.3198 73.6809 35.0798 71.5109 32.6998C69.7609 30.8098 68.6409 28.8498 68.8509 28.4298C69.6209 27.2398 73.8209 25.6998 76.3409 25.6998C77.6009 25.7698 79.6309 26.1898 80.7509 26.6798Z" fill="white"/>
<path d="M64.16 30.6699C68.85 32.0699 73.4 38.4399 73.4 43.5499C73.4 44.4599 74.31 45.4399 75.99 46.3499C81.45 49.2899 83.34 55.3799 80.19 60.0699C77.18 64.6199 75.78 64.8999 56.95 64.8999C40.85 64.8999 39.94 64.8299 37 63.2899C27.76 58.6699 27.76 45.9299 37 41.2399C38.75 40.3999 41.41 39.6999 43.02 39.6999C45.68 39.6999 46.1 39.4899 47.29 37.0399C50.16 31.6499 57.79 28.7099 64.16 30.6699Z" fill="#E8E8E8"/>
<path d="M99.6503 36.2007C100.56 37.6707 98.8103 38.3707 94.6803 38.1607C91.6003 38.0207 90.5503 37.6707 90.5503 36.9007C90.5503 35.5707 98.8803 34.9407 99.6503 36.2007Z" fill="white"/>
<path d="M90.7609 49.7101C93.0709 52.0901 93.4909 52.9301 92.8609 53.5601C92.2309 54.1901 91.3909 53.7701 89.0109 51.4601C86.0009 48.5201 85.2309 46.7001 86.9109 46.7001C87.4009 46.7001 89.1509 48.0301 90.7609 49.7101Z" fill="white"/>
</svg>
