<?xml version="1.0" encoding="UTF-8"?>
<svg xmlns="http://www.w3.org/2000/svg" xmlns:xlink="http://www.w3.org/1999/xlink" width="24px" height="25px" viewBox="0 0 24 25" version="1.1">
<g id="surface1">
<path style=" stroke:none;fill-rule:nonzero;fill:rgb(0%,0%,0%);fill-opacity:1;" d="M 12 0.59375 C 10.425781 0.59375 8.863281 0.902344 7.40625 1.5 C 5.953125 2.101562 4.628906 2.976562 3.515625 4.082031 C 1.265625 6.316406 0 9.34375 0 12.5 C 0 15.65625 1.265625 18.683594 3.515625 20.917969 C 4.628906 22.023438 5.953125 22.898438 7.40625 23.5 C 8.863281 24.097656 10.425781 24.40625 12 24.40625 C 15.183594 24.40625 18.234375 23.152344 20.484375 20.917969 C 22.734375 18.683594 24 15.65625 24 12.5 C 24 10.9375 23.691406 9.386719 23.085938 7.945312 C 22.484375 6.5 21.601562 5.1875 20.484375 4.082031 C 19.371094 2.976562 18.046875 2.101562 16.59375 1.5 C 15.136719 0.902344 13.574219 0.59375 12 0.59375 Z M 12 22.023438 C 9.453125 22.023438 7.011719 21.019531 5.210938 19.234375 C 3.410156 17.449219 2.398438 15.027344 2.398438 12.5 C 2.398438 9.972656 3.410156 7.550781 5.210938 5.765625 C 7.011719 3.980469 9.453125 2.976562 12 2.976562 C 14.546875 2.976562 16.988281 3.980469 18.789062 5.765625 C 20.589844 7.550781 21.601562 9.972656 21.601562 12.5 C 21.601562 15.027344 20.589844 17.449219 18.789062 19.234375 C 16.988281 21.019531 14.546875 22.023438 12 22.023438 Z M 16.800781 16.070312 L 16.800781 13.691406 L 14.0625 13.691406 C 13.632812 14.429688 12.851562 14.882812 12 14.882812 C 11.363281 14.882812 10.753906 14.628906 10.304688 14.183594 C 9.851562 13.738281 9.601562 13.132812 9.601562 12.5 C 9.601562 11.867188 9.851562 11.261719 10.304688 10.816406 C 10.753906 10.371094 11.363281 10.117188 12 10.117188 C 12.851562 10.117188 13.632812 10.570312 14.0625 11.308594 L 16.800781 11.308594 L 16.800781 8.929688 L 20.398438 12.5 Z M 16.800781 16.070312 "/>
</g>
</svg>
