<?xml version="1.0" encoding="UTF-8"?>
<svg xmlns="http://www.w3.org/2000/svg" xmlns:xlink="http://www.w3.org/1999/xlink" width="24px" height="24px" viewBox="0 0 24 24" version="1.1">
<g id="surface1">
<path style=" stroke:none;fill-rule:nonzero;fill:rgb(0%,0%,0%);fill-opacity:1;" d="M 5.050781 3.15625 L 5.050781 13.261719 L 24 10.738281 L 24 5.683594 Z M 8.84375 5.570312 L 12.632812 6.074219 L 12.632812 10.34375 L 8.84375 10.851562 Z M 16.421875 6.582031 L 20.210938 7.085938 L 20.210938 9.335938 L 16.421875 9.839844 Z M 2.527344 9.472656 L 2.527344 10.738281 L 3.789062 10.738281 L 3.789062 12 L 2.527344 12 L 2.527344 23.367188 L 0 23.367188 L 0 1.894531 C 0 1.199219 0.570312 0.632812 1.261719 0.632812 C 1.957031 0.632812 2.527344 1.199219 2.527344 1.894531 L 2.527344 4.421875 L 3.789062 4.421875 L 3.789062 5.683594 L 2.527344 5.683594 Z M 2.527344 9.472656 "/>
</g>
</svg>
